# xmcd
#
# Track frame offsets: 
#        150
#        5575
#        24741
#        41809
#        59336
#        79467
#        97870
#        120752
#        142872
#        166270
#        191455
#        212827
#
# Disc length: 3214 seconds
#
# Revision: 2
# Processed by: cddbd v1.5.2PL0 Copyright (c) Steve Scherf et al.
# Submitted via: ExactAudioCopy v1.0b1
#
DISCID=970c8c0c
DTITLE=Scooter - Back To The Heavyweight Jam
DYEAR=1999
DGENRE=New Age
TTITLE0=Keyser Soze
TTITLE1=Watch Out
TTITLE2=Faster Harder Scooter
TTITLE3=Well Done, Peter
TTITLE4=Fuck The Millenium
TTITLE5=The Revolution
TTITLE6=Psycho
TTITLE7=The Learning Process
TTITLE8=I'll Put You On The Guest List
TTITLE9=Main Floor
TTITLE10=Kashmir
TTITLE11=No Release
EXTD=YEAR: 1999
EXTT0=
EXTT1=
EXTT2=
EXTT3=
EXTT4=
EXTT5=
EXTT6=
EXTT7=
EXTT8=
EXTT9=
EXTT10=
EXTT11=
PLAYORDER=
